<svg width="624" height="538" viewBox="0 0 624 538" fill="none" xmlns="http://www.w3.org/2000/svg">
<mask id="mask0_2_232" style="mask-type:alpha" maskUnits="userSpaceOnUse" x="4" y="0" width="620" height="530">
<path d="M4 0H624V530H118L61 338H4V0Z" fill="#C4C4C4"/>
</mask>
<g mask="url(#mask0_2_232)">
<path d="M937.826 92.3552C971.477 142.712 971.951 210.168 944.856 263.505C916.781 318.755 860.299 350.6 798.702 348.752C739.25 346.936 679.016 314.937 653.341 259.63C629.327 207.892 636.705 133.757 695.773 109.673C745.657 89.3427 811.938 113.378 833.093 163.795C854.249 214.211 829.921 274.476 787.152 305.452C733.178 344.52 662.243 326.251 607.646 298.945C541.418 265.969 480.089 211.196 402.792 207.995C341.848 205.471 281.847 235.355 243.131 281.887C223.587 305.067 210.127 332.75 203.971 362.428C197.538 394.865 202.99 433.244 224.987 459.054C249.452 487.771 288.903 485.815 316.031 461.691C345.834 435.141 352.714 393.384 357.266 355.748C365.938 283.875 365.636 203.67 325.774 140.355C290.414 84.3394 222.452 43.2551 155.27 63.6018C79.1086 86.6747 41.1803 165.465 27.9806 238.08C20.8277 277.475 18.7251 317.699 16.3547 357.609C13.9394 398.184 11.8017 438.809 7.47506 479.278C-0.803119 555.947 -17.5496 632.676 -57.493 699.572C-94.9557 762.329 -151.749 813.844 -223.925 831.702C-291.109 848.423 -362.461 837.052 -426.163 812.378C-505.807 781.621 -576.319 731.585 -647.273 685.099L-874.872 536.009L-984.001 464.513C-986.35 462.975 -984.239 459.134 -981.89 460.644L-757.018 607.939C-683.868 655.869 -611.591 705.571 -536.889 751.052C-470.376 791.525 -398.248 826.533 -319.669 833.726C-284.87 836.914 -249.382 834.666 -215.702 824.864C-179.147 813.931 -145.659 794.574 -117.929 768.351C3.52197 655.084 3.72518 478.428 13.9724 325.169C18.8765 252.156 27.2364 173.659 75.2355 114.722C95.9629 89.226 123.487 68.2366 155.307 58.9513C184.243 50.7884 215.067 52.5361 242.873 63.9163C303.356 87.9811 342.727 144.8 357.475 206.562C365.676 241.117 367.282 276.946 365.489 312.266C363.639 348.347 360.711 387.118 347.868 421.143C336.924 450.114 314.576 477.229 282.963 483.854C254.715 489.757 228.856 475.249 214.115 451.475C182.005 399.695 199.131 332.923 233.512 287.018C267.622 241.505 321.065 209.988 377.824 204.321C450.072 197.16 511.964 238.555 571.182 273.685C627.258 306.972 700.922 342.867 766.067 312.757C818.107 288.708 851.444 222.368 829.815 167.379C807.996 111.798 728.033 87.9531 679.652 123.661C621.654 166.437 642.265 256.676 687.812 299.746C733.359 342.815 805.493 356.414 863.844 333.269C924.559 309.144 960.026 245.382 959.86 181.63C960.013 150.723 951.026 120.47 934.029 94.6753C932.442 92.2942 936.254 90.0984 937.826 92.3552Z" fill="#FF4C0D"/>
</g>
</svg>
